<mxfile host="app.diagrams.net" agent="Mozilla/5.0 (Windows NT 10.0; Win64; x64) AppleWebKit/537.36 (KHTML, like Gecko) Chrome/133.0.0.0 Safari/537.36" version="26.1.0">
  <diagram name="Strona-1" id="KYUDrYVA7r5Z4Tjmmiz6">
    <mxGraphModel dx="1434" dy="780" grid="1" gridSize="10" guides="1" tooltips="1" connect="1" arrows="1" fold="1" page="1" pageScale="1" pageWidth="827" pageHeight="1169" math="0" shadow="0">
      <root>
        <mxCell id="0" />
        <mxCell id="1" parent="0" />
        <mxCell id="-_CN3tRW8yAgAqbpjjq_-7" value="" style="edgeStyle=orthogonalEdgeStyle;rounded=0;orthogonalLoop=1;jettySize=auto;html=1;" edge="1" parent="1" source="-_CN3tRW8yAgAqbpjjq_-1" target="-_CN3tRW8yAgAqbpjjq_-6">
          <mxGeometry relative="1" as="geometry" />
        </mxCell>
        <mxCell id="-_CN3tRW8yAgAqbpjjq_-1" value="Start" style="strokeWidth=2;html=1;shape=mxgraph.flowchart.start_1;whiteSpace=wrap;" vertex="1" parent="1">
          <mxGeometry x="370" y="50" width="100" height="60" as="geometry" />
        </mxCell>
        <mxCell id="-_CN3tRW8yAgAqbpjjq_-9" value="" style="edgeStyle=orthogonalEdgeStyle;rounded=0;orthogonalLoop=1;jettySize=auto;html=1;" edge="1" parent="1" source="-_CN3tRW8yAgAqbpjjq_-6" target="-_CN3tRW8yAgAqbpjjq_-8">
          <mxGeometry relative="1" as="geometry" />
        </mxCell>
        <mxCell id="-_CN3tRW8yAgAqbpjjq_-6" value="Podaj (a,b,c)" style="shape=parallelogram;perimeter=parallelogramPerimeter;whiteSpace=wrap;html=1;fixedSize=1;strokeWidth=2;" vertex="1" parent="1">
          <mxGeometry x="360" y="190" width="120" height="60" as="geometry" />
        </mxCell>
        <mxCell id="-_CN3tRW8yAgAqbpjjq_-11" value="" style="edgeStyle=orthogonalEdgeStyle;rounded=0;orthogonalLoop=1;jettySize=auto;html=1;" edge="1" parent="1" source="-_CN3tRW8yAgAqbpjjq_-8" target="-_CN3tRW8yAgAqbpjjq_-10">
          <mxGeometry relative="1" as="geometry" />
        </mxCell>
        <mxCell id="-_CN3tRW8yAgAqbpjjq_-8" value="delta:= b&lt;sup&gt;2&lt;/sup&gt;-4*a*c&lt;div&gt;&lt;br&gt;&lt;/div&gt;" style="whiteSpace=wrap;html=1;strokeWidth=2;" vertex="1" parent="1">
          <mxGeometry x="360" y="310" width="120" height="60" as="geometry" />
        </mxCell>
        <mxCell id="-_CN3tRW8yAgAqbpjjq_-13" value="" style="edgeStyle=orthogonalEdgeStyle;rounded=0;orthogonalLoop=1;jettySize=auto;html=1;" edge="1" parent="1" source="-_CN3tRW8yAgAqbpjjq_-10" target="-_CN3tRW8yAgAqbpjjq_-12">
          <mxGeometry relative="1" as="geometry" />
        </mxCell>
        <mxCell id="-_CN3tRW8yAgAqbpjjq_-31" value="Tak" style="edgeLabel;html=1;align=center;verticalAlign=middle;resizable=0;points=[];" vertex="1" connectable="0" parent="-_CN3tRW8yAgAqbpjjq_-13">
          <mxGeometry x="-0.2148" y="-1" relative="1" as="geometry">
            <mxPoint as="offset" />
          </mxGeometry>
        </mxCell>
        <mxCell id="-_CN3tRW8yAgAqbpjjq_-15" value="" style="edgeStyle=orthogonalEdgeStyle;rounded=0;orthogonalLoop=1;jettySize=auto;html=1;" edge="1" parent="1" source="-_CN3tRW8yAgAqbpjjq_-10" target="-_CN3tRW8yAgAqbpjjq_-14">
          <mxGeometry relative="1" as="geometry" />
        </mxCell>
        <mxCell id="-_CN3tRW8yAgAqbpjjq_-32" value="Nie" style="edgeLabel;html=1;align=center;verticalAlign=middle;resizable=0;points=[];" vertex="1" connectable="0" parent="-_CN3tRW8yAgAqbpjjq_-15">
          <mxGeometry x="0.6333" y="2" relative="1" as="geometry">
            <mxPoint x="-2" as="offset" />
          </mxGeometry>
        </mxCell>
        <mxCell id="-_CN3tRW8yAgAqbpjjq_-10" value="delta &amp;gt; 0" style="rhombus;whiteSpace=wrap;html=1;strokeWidth=2;" vertex="1" parent="1">
          <mxGeometry x="380" y="440" width="80" height="80" as="geometry" />
        </mxCell>
        <mxCell id="-_CN3tRW8yAgAqbpjjq_-19" value="" style="edgeStyle=orthogonalEdgeStyle;rounded=0;orthogonalLoop=1;jettySize=auto;html=1;" edge="1" parent="1" source="-_CN3tRW8yAgAqbpjjq_-12" target="-_CN3tRW8yAgAqbpjjq_-18">
          <mxGeometry relative="1" as="geometry" />
        </mxCell>
        <mxCell id="-_CN3tRW8yAgAqbpjjq_-12" value="x1:= (-b - delta*(1/2)) /2*a&lt;div&gt;x2:=(-b + delta*(1/2))/2*a&lt;/div&gt;" style="whiteSpace=wrap;html=1;strokeWidth=2;" vertex="1" parent="1">
          <mxGeometry x="595" y="450" width="150" height="60" as="geometry" />
        </mxCell>
        <mxCell id="-_CN3tRW8yAgAqbpjjq_-17" value="" style="edgeStyle=orthogonalEdgeStyle;rounded=0;orthogonalLoop=1;jettySize=auto;html=1;" edge="1" parent="1" source="-_CN3tRW8yAgAqbpjjq_-14" target="-_CN3tRW8yAgAqbpjjq_-16">
          <mxGeometry relative="1" as="geometry" />
        </mxCell>
        <mxCell id="-_CN3tRW8yAgAqbpjjq_-33" value="Tak" style="edgeLabel;html=1;align=center;verticalAlign=middle;resizable=0;points=[];" vertex="1" connectable="0" parent="-_CN3tRW8yAgAqbpjjq_-17">
          <mxGeometry x="0.1" y="-1" relative="1" as="geometry">
            <mxPoint as="offset" />
          </mxGeometry>
        </mxCell>
        <mxCell id="-_CN3tRW8yAgAqbpjjq_-23" value="" style="edgeStyle=orthogonalEdgeStyle;rounded=0;orthogonalLoop=1;jettySize=auto;html=1;" edge="1" parent="1" source="-_CN3tRW8yAgAqbpjjq_-14" target="-_CN3tRW8yAgAqbpjjq_-22">
          <mxGeometry relative="1" as="geometry" />
        </mxCell>
        <mxCell id="-_CN3tRW8yAgAqbpjjq_-34" value="Nie" style="edgeLabel;html=1;align=center;verticalAlign=middle;resizable=0;points=[];" vertex="1" connectable="0" parent="-_CN3tRW8yAgAqbpjjq_-23">
          <mxGeometry x="-0.4286" y="-4" relative="1" as="geometry">
            <mxPoint x="4" as="offset" />
          </mxGeometry>
        </mxCell>
        <mxCell id="-_CN3tRW8yAgAqbpjjq_-14" value="delta == 0" style="rhombus;whiteSpace=wrap;html=1;strokeWidth=2;" vertex="1" parent="1">
          <mxGeometry x="380" y="540" width="80" height="80" as="geometry" />
        </mxCell>
        <mxCell id="-_CN3tRW8yAgAqbpjjq_-21" value="" style="edgeStyle=orthogonalEdgeStyle;rounded=0;orthogonalLoop=1;jettySize=auto;html=1;" edge="1" parent="1" source="-_CN3tRW8yAgAqbpjjq_-16" target="-_CN3tRW8yAgAqbpjjq_-20">
          <mxGeometry relative="1" as="geometry" />
        </mxCell>
        <mxCell id="-_CN3tRW8yAgAqbpjjq_-16" value="x:=-b/2*a" style="whiteSpace=wrap;html=1;strokeWidth=2;" vertex="1" parent="1">
          <mxGeometry x="200" y="550" width="120" height="60" as="geometry" />
        </mxCell>
        <mxCell id="-_CN3tRW8yAgAqbpjjq_-30" style="edgeStyle=orthogonalEdgeStyle;rounded=0;orthogonalLoop=1;jettySize=auto;html=1;exitX=0.5;exitY=1;exitDx=0;exitDy=0;" edge="1" parent="1" source="-_CN3tRW8yAgAqbpjjq_-18" target="-_CN3tRW8yAgAqbpjjq_-26">
          <mxGeometry relative="1" as="geometry" />
        </mxCell>
        <mxCell id="-_CN3tRW8yAgAqbpjjq_-18" value="Pisz (x1,x2)" style="shape=parallelogram;perimeter=parallelogramPerimeter;whiteSpace=wrap;html=1;fixedSize=1;strokeWidth=2;" vertex="1" parent="1">
          <mxGeometry x="610" y="690" width="120" height="60" as="geometry" />
        </mxCell>
        <mxCell id="-_CN3tRW8yAgAqbpjjq_-29" style="edgeStyle=orthogonalEdgeStyle;rounded=0;orthogonalLoop=1;jettySize=auto;html=1;exitX=0.5;exitY=1;exitDx=0;exitDy=0;" edge="1" parent="1" source="-_CN3tRW8yAgAqbpjjq_-20" target="-_CN3tRW8yAgAqbpjjq_-26">
          <mxGeometry relative="1" as="geometry" />
        </mxCell>
        <mxCell id="-_CN3tRW8yAgAqbpjjq_-20" value="Pisz (x)" style="shape=parallelogram;perimeter=parallelogramPerimeter;whiteSpace=wrap;html=1;fixedSize=1;strokeWidth=2;" vertex="1" parent="1">
          <mxGeometry x="200" y="690" width="120" height="60" as="geometry" />
        </mxCell>
        <mxCell id="-_CN3tRW8yAgAqbpjjq_-25" value="" style="edgeStyle=orthogonalEdgeStyle;rounded=0;orthogonalLoop=1;jettySize=auto;html=1;" edge="1" parent="1" source="-_CN3tRW8yAgAqbpjjq_-22">
          <mxGeometry relative="1" as="geometry">
            <mxPoint x="420" y="820" as="targetPoint" />
          </mxGeometry>
        </mxCell>
        <mxCell id="-_CN3tRW8yAgAqbpjjq_-22" value="Pisz (&quot;Brak rozwiązań&quot;)" style="shape=parallelogram;perimeter=parallelogramPerimeter;whiteSpace=wrap;html=1;fixedSize=1;strokeWidth=2;" vertex="1" parent="1">
          <mxGeometry x="360" y="690" width="120" height="60" as="geometry" />
        </mxCell>
        <mxCell id="-_CN3tRW8yAgAqbpjjq_-26" value="Stop" style="strokeWidth=2;html=1;shape=mxgraph.flowchart.start_1;whiteSpace=wrap;" vertex="1" parent="1">
          <mxGeometry x="370" y="820" width="100" height="60" as="geometry" />
        </mxCell>
      </root>
    </mxGraphModel>
  </diagram>
</mxfile>
